<?xml version="1.0" encoding="utf-8"?><svg viewBox="0 0 21 21" xmlns="http://www.w3.org/2000/svg" xmlns:xlink="http://www.w3.org/1999/xlink"><style>:root>svg{display:none}:root>svg:target{display:block}</style><svg viewBox="0 0 21 20" id="icon-cart" xmlns="http://www.w3.org/2000/svg"><path d="m1 1.03 2.08.356.963 11.34c.077.926.86 1.636 1.8 1.633h10.909a1.794 1.794 0 0 0 1.785-1.528l.949-6.482a1.328 1.328 0 0 0-1.135-1.501c-.064-.009-14.937-.014-14.937-.014M12.375 8.487h2.773"/><path fill-rule="evenodd" clip-rule="evenodd" d="M5.404 17.786a.54.54 0 0 1 .544.538.541.541 0 0 1-.544.538.541.541 0 0 1-.544-.538.54.54 0 0 1 .544-.538ZM16.685 17.786c.3 0 .545.24.545.538a.542.542 0 0 1-.545.538.541.541 0 0 1-.544-.538.54.54 0 0 1 .544-.538Z"/></svg><svg viewBox="0 0 21 21" id="icon-search" xmlns="http://www.w3.org/2000/svg"><ellipse cx="9.767" cy="9.66" rx="8.989" ry="8.884"/><path d="m16.018 16.3 3.524 3.474"/></svg></svg>